<?xml version="1.0" encoding="utf-8"?>
<!-- Generator: Adobe Illustrator 23.1.1, SVG Export Plug-In . SVG Version: 6.00 Build 0)  -->
<svg version="1.1" id="Laag_1" xmlns="http://www.w3.org/2000/svg" xmlns:xlink="http://www.w3.org/1999/xlink" x="0px" y="0px"
	 viewBox="0 0 1920 284.9" style="enable-background:new 0 0 1920 284.9;" xml:space="preserve">
<style type="text/css">
	.st0{clip-path:url(#SVGID_2_);fill:#F9FDFF;}
	.st1{clip-path:url(#SVGID_4_);fill:#F9FDFF;}
	.st2{clip-path:url(#SVGID_6_);fill:#F9FDFF;}
	.st3{fill:#1C3341;}
	.st4{fill:#F9FDFF;}
</style>
<g>
	<g>
		<defs>
			<rect id="SVGID_1_" x="0" y="34.9" width="1920" height="250"/>
		</defs>
		<clipPath id="SVGID_2_">
			<use xlink:href="#SVGID_1_"  style="overflow:visible;"/>
		</clipPath>
		<path class="st0" d="M1920,182.9c0,0-226-63-557-61s-614,84-899,76s-464-76-464-76v163h1920V182.9z"/>
	</g>
	<g>
		<defs>
			<rect id="SVGID_3_" x="0" y="34.9" width="1920" height="250"/>
		</defs>
		<clipPath id="SVGID_4_">
			<use xlink:href="#SVGID_3_"  style="overflow:visible;"/>
		</clipPath>
		<path class="st1" d="M1261.9,202.5c-16.8,0-32.1-0.8-45.9-2.4c-43.2-4.9-87.1-8.2-129.6-11.3c-90.2-6.6-183.4-13.4-273-37.2
			c-36.9-9.8-74.1-21.8-110.2-33.4c-91.9-29.7-187-60.4-285.9-57.2c-108.7,3.6-214.7,42.6-317.2,80.3
			c-58,21.3-117.9,43.4-177.3,58.5c-3.9,1-16.8-5.3-37.7-15.7c-13.8-6.9-32.8-16.3-35.8-15.5l-0.7-2.8c3.9-1,16.9,5.3,37.9,15.7
			c13.8,6.8,32.6,16.2,35.6,15.4c59.2-15.1,119.1-37.1,177-58.4C201.8,100.7,308,61.6,417.3,58.1c99.4-3.2,194.7,27.6,286.9,57.3
			c36,11.6,73.2,23.6,110,33.4c89.3,23.7,182.4,30.5,272.4,37.1c42.5,3.1,86.5,6.3,129.7,11.3c55.1,6.3,135-0.1,237.3-19.1
			c81.9-15.2,178.4-38.4,286.6-69.1C1924.6,56.8,2081.4,0.6,2083,0l1,2.8c-1.6,0.6-158.4,56.9-342.9,109.1
			c-108.4,30.7-204.9,53.9-286.9,69.1C1377.1,195.3,1312.6,202.5,1261.9,202.5z"/>
	</g>
	<g>
		<defs>
			<rect id="SVGID_5_" x="0" y="34.9" width="1920" height="250"/>
		</defs>
		<clipPath id="SVGID_6_">
			<use xlink:href="#SVGID_5_"  style="overflow:visible;"/>
		</clipPath>
		<path class="st2" d="M2145.9,161.6c-0.8-0.2-78.9-23-205.8-47c-117.2-22.1-301.2-49.9-512.1-56.2
			c-241.5-7.2-453.8,27.4-624.4,55.3c-120.2,19.6-224,36.5-310.3,35.2C284.8,145.6-72.5,78.4-76,77.8l0.6-2.9
			c3.6,0.7,360.6,67.8,568.8,71.1c86,1.3,189.7-15.6,309.8-35.2c170.7-27.9,383.2-62.6,624.9-55.3c211.2,6.3,395.3,34.1,512.6,56.3
			c127.1,24,205.3,46.8,206.1,47.1L2145.9,161.6z"/>
	</g>
</g>
<g>
	<circle class="st3" cx="960" cy="224.9" r="29"/>
	<g>
		<path class="st4" d="M960,234.6c-0.6,0-1.1-0.2-1.6-0.6l-7-6c-1-0.9-1.1-2.4-0.3-3.4c0.9-1,2.4-1.1,3.4-0.3l5.5,4.7l5.5-4.7
			c1-0.9,2.5-0.7,3.4,0.3s0.8,2.5-0.3,3.4l-7,6C961.1,234.4,960.5,234.6,960,234.6z"/>
		<path class="st4" d="M960,234.6c-1.3,0-2.4-1.1-2.4-2.4v-16.9c0-1.3,1.1-2.4,2.4-2.4s2.4,1.1,2.4,2.4v16.9
			C962.4,233.5,961.3,234.6,960,234.6z"/>
	</g>
</g>
</svg>
